mtllib materials.mtl
v 0.5700002 -0.01499891 -0.01500001
v 0.5700002 1.072884E-06 -0.02500001
v -0.6200002 -1.072884E-06 -0.02499998
v -0.6200002 -0.01500106 -0.01499997
v 0.6200002 -0.01499891 -0.01500001
v 0.6200002 -0.0249989 7.450581E-09
v 0.6200002 -0.01499891 0.01500001
v 0.6200002 1.072884E-06 0.025
v 0.6200002 0.01500106 0.01499999
v 0.6200002 0.02500105 -1.490116E-08
v 0.6200002 0.01500106 -0.01500002
v 0.6200002 1.072884E-06 -0.02500001
v 0.5700002 -0.01499891 0.015
v 0.5700002 1.072884E-06 0.025
v 0.5700002 -0.0249989 -7.450581E-09
v 0.5700002 0.01500106 -0.01500002
v 0.5700002 0.02500105 -1.490116E-08
v 0.5700002 0.01500106 0.01499999
v -0.6200002 0.01499891 -0.01499998
v -0.6200002 0.0249989 7.450581E-09
v -0.6200002 0.01499891 0.01499999
v -0.6200002 -1.072884E-06 0.02499998
v -0.6200002 -0.01500106 0.015
v -0.6200002 -0.02500105 2.235174E-08
vn 9.721525E-07 -0.5547003 -0.8320502
vn 1 -1.192095E-06 8.622837E-07
vn 1.07732E-08 -0.5547005 -0.8320501
vn 1.80274E-08 -0.5547006 0.8320501
vn 1.495102E-07 -0.8320504 -0.5547001
vn -9.644521E-09 0.8320506 -0.5546999
vn -1.07732E-08 0.5547005 0.8320501
vn -1.350045E-07 -0.8320507 0.5546997
vn -8.986889E-09 0.5547005 -0.8320501
vn 8.301159E-09 0.8320506 0.5546998
vn -1.028058E-06 0.5547004 -0.8320503
vn -1.514521E-06 0.8320504 -0.5547001
vn -1.495551E-06 0.8320504 0.5547001
vn -1.005129E-06 0.5547003 0.8320503
vn 9.952271E-07 -0.5547003 0.8320503
vn 1.507947E-06 -0.8320504 0.5547001
vn 1.48495E-06 -0.8320504 -0.5547001
vn -1 1.432335E-12 -1.210272E-05
vt -0.003139915 0.1427512
vt -0.004676121 0.1436947
vt -0.06695145 0.04229058
vt -0.06541525 0.04134714
vt 0.03964045 0.07614239
vt 0.04027981 0.0744568
vt 0.04208165 0.07439868
vt 0.04376724 0.07503804
vt 0.04382537 0.07683988
vt 0.043186 0.07852547
vt 0.04138416 0.07858359
vt 0.03969857 0.07794423
vt -0.003139927 0.1427512
vt -0.0005233127 0.1470119
vt -0.002059519 0.1479553
vt -0.004676132 0.1436947
vt 0.0386742 0.131244
vt 0.04043563 0.1316279
vt 0.03937103 0.1365132
vt 0.0376096 0.1361294
vt 0.0102379 0.1325122
vt 0.01180107 0.1316142
vt 0.01429183 0.1359496
vt 0.01272866 0.1368477
vt -0.04119822 0.1192074
vt -0.04129725 0.1242064
vt -0.04309968 0.1241707
vt -0.04300064 0.1191717
vt 0.002312736 0.1422432
vt 0.003848942 0.1431867
vt 0.001232328 0.1474473
vt -0.000303878 0.1465039
vt 0.04022768 0.1192266
vt 0.0420301 0.1191909
vt 0.04212914 0.1241899
vt 0.04032672 0.1242256
vt -0.03666113 0.1359227
vt -0.03842256 0.1363065
vt -0.03948717 0.1314212
vt -0.03772573 0.1310374
vt -0.01188696 0.1373312
vt -0.01345013 0.1364332
vt -0.01095937 0.1320978
vt -0.009396205 0.1329958
vt -0.03772572 0.1310374
vt -0.03948716 0.1314213
vt -0.06482457 0.01514991
vt -0.06306313 0.01476607
vt -0.04119822 0.1192075
vt -0.04300064 0.1191718
vt -0.0406435 0.0001951001
vt -0.03884108 0.0002308075
vt -0.009396227 0.1329959
vt -0.0109594 0.1320979
vt 0.04832064 0.02891409
vt 0.04988381 0.02981215
vt 0.003848928 0.1431867
vt 0.002312722 0.1422433
vt 0.06458806 0.04083915
vt 0.06612426 0.04178258
vt 0.04043563 0.1316279
vt 0.0386742 0.1312441
vt 0.06401161 0.01497275
vt 0.06577304 0.0153566
vt 0.0420301 0.119191
vt 0.04022769 0.1192267
vt 0.03787054 0.0002500269
vt 0.03967296 0.0002143195
vt 0.01180109 0.1316143
vt 0.01023792 0.1325123
vt -0.04904211 0.02932857
vt -0.04747894 0.02843051
vt -0.03964154 0.0761414
vt -0.03969969 0.07794324
vt -0.04138529 0.07858257
vt -0.04318712 0.07852442
vt -0.04382646 0.07683882
vt -0.04376831 0.07503699
vt -0.04208271 0.07439765
vt -0.04028087 0.07445581
o group194377024
g mesh194377024
usemtl mat21
f 4/4/1 3/3/1 2/2/1 1/1/1
f 12/12/2 11/11/2 10/10/2 9/9/2 8/8/2 7/7/2 6/6/2 5/5/2
f 2/16/3 12/15/3 5/14/3 1/13/3
f 7/20/4 8/19/4 14/18/4 13/17/4
f 5/24/5 6/23/5 15/22/5 1/21/5
f 17/28/6 10/27/6 11/26/6 16/25/6
f 8/32/7 9/31/7 18/30/7 14/29/7
f 6/36/8 7/35/8 13/34/8 15/33/8
f 2/40/9 16/39/9 11/38/9 12/37/9
f 17/44/10 18/43/10 9/42/10 10/41/10
f 3/48/11 19/47/11 16/46/11 2/45/11
f 19/52/12 20/51/12 17/50/12 16/49/12
f 20/56/13 21/55/13 18/54/13 17/53/13
f 21/60/14 22/59/14 14/58/14 18/57/14
f 22/64/15 23/63/15 13/62/15 14/61/15
f 23/68/16 24/67/16 15/66/16 13/65/16
f 24/72/17 4/71/17 1/70/17 15/69/17
f 24/80/18 23/79/18 22/78/18 21/77/18 20/76/18 19/75/18 3/74/18 4/73/18
