mtllib materials.mtl
v -0.05250013 -0.01499999 0.03249997
v -0.05250013 -0.01499999 0.07250001
v -0.05250013 0 0.07249996
v -0.1425 -0.01499999 0.03249997
v -0.1425 0 0.05249996
v -0.1425 -0.01499999 0.07249996
v -0.05250013 0.01499999 0.03249997
v -0.05250013 0.01499999 0.07249996
v -0.1425 0.01499999 0.07249996
v -0.1425 0.01499999 0.03249997
v -0.09250009 0 -0.1075
v -0.1375 0 -0.1125
v -0.1425 -0.01499999 0.1125
v -0.05250013 -0.01499999 0.1125
v -0.1825 0 0.04000005
v 0.1824999 0 -0.007500134
v -0.1425 0 0.1125
v -0.1425 0.01499999 0.1125
v -0.05250013 0.01499999 0.1125
v -0.05250013 0 0.1125
v -0.00999999 0 -0.08750005
v -0.1525 0 0.007500131
v -0.1825 0 -0.09750004
vn 1 0 0
vn -1 0 0
vn 0 -1 0
vn 0 1 0
vn 0.01138932 -0.9946674 -0.1025039
vn -2.255139E-13 -1 1.959733E-06
vn 1.574241E-08 0.9943092 -0.106533
vn 1 0 0
vn -1 0 0
vn -0.1842875 -0.7862978 0.5897237
vn -0.1842873 0.7862982 0.5897232
vn 0.1186865 -0.9297111 0.3486413
vn 0.1186865 0.9297111 0.3486413
vn -1 5.949589E-07 9.313211E-07
vn -1 -2.592297E-08 0
vn 0 1 -9.663378E-09
vn 1 2.640848E-09 0
vn 1 5.847166E-07 9.313204E-07
vn 0 0 1
vn 0.04497095 0.9931102 -0.1082114
vn 0.04497096 -0.9931102 -0.1082114
vn 0.0113893 0.9946674 -0.1025038
vn 1.980808E-07 -0.9943092 -0.1065331
vn -0.945792 0.1801545 0.2702256
vn -0.9457922 -0.1801535 0.2702256
vn -0.3859125 0.8509839 -0.3562274
vn -0.385913 -0.8509835 -0.3562279
vn 0.02771314 0.9930577 -0.114317
vn -0.03467335 0.9939706 -0.1040201
vn 0.02771314 -0.9930577 -0.114317
vn -0.03467341 -0.9939706 -0.1040202
vt 0.06323873 0.08509328
vt 0.06649367 0.08276833
vt 0.06736551 0.08398893
vt -0.06323873 0.08509328
vt -0.06573805 0.0851514
vt -0.06649366 0.08276833
vt 0.04056217 0.1076277
vt 0.03753515 0.09915198
vt 0.04130211 0.09780663
vt 0.04432914 0.1062823
vt -0.04056217 0.1076277
vt -0.04432914 0.1062823
vt -0.04130211 0.09780663
vt -0.03753515 0.09915198
vt 0.02078275 0.1126197
vt 0.01863441 0.1086341
vt 0.031961 0.1027052
vt 0.04432924 0.1062823
vt 0.04130222 0.0978066
vt 0.04506919 0.09646125
vt 0.04809621 0.1049369
vt -0.03161638 0.1064032
vt -0.0462517 0.1061638
vt -0.043651 0.09754779
vt 0.06736551 0.08398893
vt 0.06823738 0.08520953
vt 0.06498244 0.08753448
vt -0.06498244 0.08753448
vt -0.06823738 0.08520953
vt -0.06573805 0.0851514
vt 0.06373309 0.08983696
vt 0.06529973 0.08579244
vt 0.06623276 0.08987802
vt -0.0070003 0.1349927
vt -0.004102795 0.131965
vt -0.004833848 0.1362403
vt 0.06148533 0.1180959
vt 0.05757337 0.1426101
vt 0.0572602 0.118727
vt -0.01606173 0.1070937
vt -0.02439767 0.129477
vt -0.01982769 0.1050769
vt -0.06649362 0.08276845
vt -0.06573801 0.08515152
vt -0.07062042 0.0816641
vt -0.06974857 0.08044349
vt -0.06573804 0.0851514
vt -0.06823737 0.08520952
vt -0.07149231 0.08288456
vt -0.07062045 0.08166397
vt -0.04130211 0.09780663
vt -0.04432914 0.1062823
vt -0.04809611 0.104937
vt -0.04506908 0.09646128
vt 0.06823738 0.08520953
vt 0.06736551 0.08398893
vt 0.07062045 0.08166397
vt 0.07149231 0.08288457
vt 0.06736554 0.08398881
vt 0.06649368 0.08276822
vt 0.06974862 0.08044325
vt 0.07062047 0.08166385
vt 0.04337973 0.1502638
vt 0.04740465 0.1422139
vt 0.04874628 0.1428848
vt 0.05008792 0.1435556
vt 0.04606301 0.1516054
vt 0.04472137 0.1509346
vt -0.04562708 0.1010592
vt -0.03532758 0.1086903
vt -0.04860945 0.1247574
vt 0.04066784 0.1379335
vt 0.02611006 0.1230126
vt 0.03574736 0.1145606
vt -0.04323068 0.09632836
vt -0.02943713 0.1010705
vt -0.03122911 0.1052285
vt 0.03146172 0.10165
vt 0.03486432 0.109982
vt 0.02031698 0.1116021
vt -0.04062956 0.1204926
vt -0.02976422 0.1215857
vt -0.04344726 0.1217418
vt -0.04940202 0.07693944
vt -0.03648357 0.08145205
vt -0.04712998 0.07902216
vt -0.05923174 0.1258742
vt -0.05663625 0.1294555
vt -0.05962884 0.1301933
vt 4.427207E-05 0.07140426
vt -0.002963302 0.07207836
vt -0.002237172 0.06771544
vt -0.04622597 0.102992
vt -0.03159071 0.103235
vt -0.03588037 0.1105604
vt -0.04408789 0.1013188
vt -0.03040433 0.1012179
vt -0.03025975 0.1059591
vt 0.0254517 0.1215013
vt 0.02050021 0.114606
vt 0.03504964 0.1130047
vt 0.01749682 0.1039918
vt 0.01715246 0.0992609
vt 0.03077369 0.09795235
o group1793016102
g mesh1793016102
usemtl mat21
f 3/3/1 2/2/1 1/1/1
f 6/6/2 5/5/2 4/4/2
f 2/10/3 6/9/3 4/8/3 1/7/3
f 10/14/4 9/13/4 8/12/4 7/11/4
f 4/17/5 12/16/5 11/15/5
f 14/21/6 13/20/6 6/19/6 2/18/6
f 10/24/7 7/23/7 11/22/7
f 7/27/8 8/26/8 3/25/8
f 5/30/9 9/29/9 10/28/9
f 5/33/10 15/32/10 4/31/10
f 10/36/11 15/35/11 5/34/11
f 1/39/12 16/38/12 3/37/12
f 3/42/13 16/41/13 7/40/13
f 13/46/14 17/45/14 5/44/14 6/43/14
f 17/50/15 18/49/15 9/48/15 5/47/15
f 18/54/16 19/53/16 8/52/16 9/51/16
f 19/58/17 20/57/17 3/56/17 8/55/17
f 20/62/18 14/61/18 2/60/18 3/59/18
f 20/68/19 19/67/19 18/66/19 17/65/19 13/64/19 14/63/19
f 16/71/20 21/70/20 7/69/20
f 1/74/21 21/73/21 16/72/21
f 11/77/22 12/76/22 10/75/22
f 11/80/23 1/79/23 4/78/23
f 10/83/24 23/82/24 22/81/24
f 22/86/25 23/85/25 4/84/25
f 10/89/26 22/88/26 15/87/26
f 15/92/27 22/91/27 4/90/27
f 21/95/28 11/94/28 7/93/28
f 12/98/29 23/97/29 10/96/29
f 1/101/30 11/100/30 21/99/30
f 4/104/31 23/103/31 12/102/31
