mtllib materials.mtl
v 0.0424999 -0.01499999 0.02999997
v 0.0424999 -0.01499999 0.07000001
v 0.0424999 0 0.06999996
v -0.04750001 -0.01499999 0.02999997
v -0.04750001 0 0.04999997
v -0.04750001 -0.01499999 0.06999996
v 0.0424999 0.01499999 0.02999997
v 0.0424999 0.01499999 0.06999996
v -0.04750001 0.01499999 0.06999996
v -0.04750001 0.01499999 0.02999997
v 0.002499938 0 -0.11
v -0.08749998 0 -0.1
v -0.04750001 -0.01499999 0.11
v 0.0424999 -0.01499999 0.11
v -0.1475 0 0.03750006
v 0.1474999 0 -0.05000013
v -0.04750001 0 0.11
v -0.04750001 0.01499999 0.11
v 0.0424999 0.01499999 0.11
v 0.0424999 0 0.11
v -0.0575 0 0.005000133
vn 1 0 0
vn -1 0 0
vn 0 -1 0
vn 0 1 0
vn -0.01192978 -0.9941478 -0.107368
vn -2.255139E-13 -1 1.959733E-06
vn 1.574241E-08 0.9943092 -0.106533
vn 1 0 0
vn -1 0 0
vn -0.07478946 -0.7977594 0.5983198
vn -0.0747894 0.7977598 0.5983192
vn 0.3724177 -0.8689746 0.3258653
vn 0.3724176 0.8689747 0.3258652
vn -1 5.949589E-07 9.313211E-07
vn -1 -2.592297E-08 0
vn 0 1 -9.663378E-09
vn 1 2.640848E-09 0
vn 1 5.847166E-07 9.313204E-07
vn 0 0 1
vn 0.04985002 0.9914644 -0.1204711
vn 0.04985002 -0.9914644 -0.1204711
vn -0.01231929 0.9937581 -0.1108737
vn 1.980808E-07 -0.9943092 -0.1065331
vn -0.945792 0.1801545 0.2702256
vn -0.9457922 -0.1801535 0.2702256
vn -0.1653659 0.8734687 -0.4579374
vn -0.1653661 -0.8734684 -0.4579379
vt 0.06323873 0.08509328
vt 0.06649367 0.08276833
vt 0.06736551 0.08398893
vt -0.06323873 0.08509328
vt -0.06573805 0.0851514
vt -0.06649366 0.08276833
vt 0.04056217 0.1076277
vt 0.03753515 0.09915198
vt 0.04130211 0.09780663
vt 0.04432914 0.1062823
vt -0.04056217 0.1076277
vt -0.04432914 0.1062823
vt -0.04130211 0.09780663
vt -0.03753515 0.09915198
vt 0.02000719 0.1104171
vt 0.01750489 0.1017143
vt 0.03112925 0.1004397
vt 0.04432924 0.1062823
vt 0.04130222 0.0978066
vt 0.04506919 0.09646125
vt 0.04809621 0.1049369
vt -0.03161638 0.1064032
vt -0.0462517 0.1061638
vt -0.043651 0.09754779
vt 0.06736551 0.08398893
vt 0.06823738 0.08520953
vt 0.06498244 0.08753448
vt -0.06498244 0.08753448
vt -0.06823738 0.08520953
vt -0.06573805 0.0851514
vt 0.0636993 0.1004186
vt 0.06534972 0.09041415
vt 0.06619902 0.1004561
vt -0.003255927 0.1279126
vt 0.002636028 0.1197366
vt -0.001092684 0.1291658
vt 0.06259457 0.1361402
vt 0.05301361 0.148886
vt 0.0583628 0.1367251
vt -0.00608579 0.07729345
vt -0.00629191 0.09057719
vt -0.009688668 0.07499796
vt -0.06649362 0.08276845
vt -0.06573801 0.08515152
vt -0.07062042 0.0816641
vt -0.06974857 0.08044349
vt -0.06573804 0.0851514
vt -0.06823737 0.08520952
vt -0.07149231 0.08288456
vt -0.07062045 0.08166397
vt -0.04130211 0.09780663
vt -0.04432914 0.1062823
vt -0.04809611 0.104937
vt -0.04506908 0.09646128
vt 0.06823738 0.08520953
vt 0.06736551 0.08398893
vt 0.07062045 0.08166397
vt 0.07149231 0.08288457
vt 0.06736554 0.08398881
vt 0.06649368 0.08276822
vt 0.06974862 0.08044325
vt 0.07062047 0.08166385
vt 0.04337973 0.1502638
vt 0.04740465 0.1422139
vt 0.04874628 0.1428848
vt 0.05008792 0.1435556
vt 0.04606301 0.1516054
vt 0.04472137 0.1509346
vt -0.04620481 0.1003938
vt -0.0315696 0.10064
vt -0.04147694 0.1128094
vt 0.03162529 0.1281464
vt 0.02064356 0.116937
vt 0.03519451 0.1153495
vt -0.04409779 0.09885265
vt -0.03041423 0.09875062
vt -0.03202865 0.1076609
vt 0.03146172 0.10165
vt 0.03486432 0.109982
vt 0.02031698 0.1116021
vt -0.04062956 0.1204926
vt -0.02976422 0.1215857
vt -0.04344726 0.1217418
vt -0.04940202 0.07693944
vt -0.03648357 0.08145205
vt -0.04712998 0.07902216
vt -0.06070163 0.1058419
vt -0.05853619 0.1151625
vt -0.06151641 0.1159487
vt 0.003782187 0.1006654
vt 0.0007570867 0.1012559
vt -0.001353956 0.09192281
o group1793016102
g mesh1793016102
usemtl mat21
f 3/3/1 2/2/1 1/1/1
f 6/6/2 5/5/2 4/4/2
f 2/10/3 6/9/3 4/8/3 1/7/3
f 10/14/4 9/13/4 8/12/4 7/11/4
f 4/17/5 12/16/5 11/15/5
f 14/21/6 13/20/6 6/19/6 2/18/6
f 10/24/7 7/23/7 11/22/7
f 7/27/8 8/26/8 3/25/8
f 5/30/9 9/29/9 10/28/9
f 5/33/10 15/32/10 4/31/10
f 10/36/11 15/35/11 5/34/11
f 1/39/12 16/38/12 3/37/12
f 3/42/13 16/41/13 7/40/13
f 13/46/14 17/45/14 5/44/14 6/43/14
f 17/50/15 18/49/15 9/48/15 5/47/15
f 18/54/16 19/53/16 8/52/16 9/51/16
f 19/58/17 20/57/17 3/56/17 8/55/17
f 20/62/18 14/61/18 2/60/18 3/59/18
f 20/68/19 19/67/19 18/66/19 17/65/19 13/64/19 14/63/19
f 16/71/20 11/70/20 7/69/20
f 1/74/21 11/73/21 16/72/21
f 11/77/22 12/76/22 10/75/22
f 11/80/23 1/79/23 4/78/23
f 10/83/24 12/82/24 21/81/24
f 21/86/25 12/85/25 4/84/25
f 10/89/26 21/88/26 15/87/26
f 15/92/27 21/91/27 4/90/27
