mtllib materials.mtl
v 0.01999998 -0.01499999 0.05
v 0.01999998 -0.01499999 0.09
v 0.01999998 0 0.09
v -0.01999998 -0.01499999 0.05
v -0.01999998 0 0.09
v -0.01999998 -0.01499999 0.09
v 0.01999998 0.01499999 0.05
v 0.01999998 0.01499999 0.09
v -0.01999998 0.01499999 0.09
v -0.01999998 0.01499999 0.05
v 0.02999997 0 -0.09
v -0.02999997 0 -0.09
vn 1 0 0
vn -1 0 0
vn 0 -1 0
vn 0 1 0
vn -6.041204E-09 -0.9943092 -0.1065332
vn 0 0 1
vn 1.574241E-08 0.9943092 -0.106533
vn 1 0 0
vn -1 0 0
vn -0.9877133 -0.1463266 0.05487291
vn -0.9877131 0.1463279 0.0548729
vn 0.9877133 -0.1463265 0.05487291
vn 0.9877131 0.1463279 0.0548729
vt 0.06323873 0.08509328
vt 0.06649366 0.08276833
vt 0.06736551 0.08398893
vt -0.06323873 0.08509328
vt -0.06736551 0.08398893
vt -0.06649366 0.08276833
vt 0.03888049 0.1029189
vt 0.03753515 0.09915198
vt 0.04130211 0.09780663
vt 0.04264746 0.1015736
vt -0.03888049 0.1029189
vt -0.04264746 0.1015736
vt -0.04130211 0.09780663
vt -0.03753515 0.09915198
vt 0.03297398 0.1053531
vt 0.02031697 0.1116021
vt 0.01804857 0.1060475
vt 0.03146171 0.10165
vt 0.04561579 0.1457916
vt 0.04740465 0.1422139
vt 0.04874628 0.1428848
vt 0.05008792 0.1435556
vt 0.04829907 0.1471333
vt 0.04695743 0.1464625
vt -0.03161638 0.1064032
vt -0.04480687 0.1013771
vt -0.043651 0.09754779
vt -0.02988258 0.1006591
vt 0.06736551 0.08398893
vt 0.06823738 0.08520953
vt 0.06498244 0.08753448
vt -0.06498244 0.08753448
vt -0.06823738 0.08520953
vt -0.06736551 0.08398893
vt -0.06465872 0.06222225
vt -0.05507361 0.07258447
vt -0.06866604 0.06074193
vt -0.0623594 0.1052751
vt -0.04603042 0.1129147
vt -0.05938448 0.108341
vt 0.06636159 0.1029236
vt 0.05121905 0.1127065
vt 0.0621841 0.1038173
vt 0.06713904 0.0626521
vt 0.05687881 0.07234631
vt 0.06857687 0.05862933
o group1793016102
g mesh1793016102
usemtl mat21
f 3/3/1 2/2/1 1/1/1
f 6/6/2 5/5/2 4/4/2
f 2/10/3 6/9/3 4/8/3 1/7/3
f 10/14/4 9/13/4 8/12/4 7/11/4
f 4/18/5 12/17/5 11/16/5 1/15/5
f 3/24/6 8/23/6 9/22/6 5/21/6 6/20/6 2/19/6
f 12/28/7 10/27/7 7/26/7 11/25/7
f 7/31/8 8/30/8 3/29/8
f 5/34/9 9/33/9 10/32/9
f 5/37/10 12/36/10 4/35/10
f 10/40/11 12/39/11 5/38/11
f 1/43/12 11/42/12 3/41/12
f 3/46/13 11/45/13 7/44/13
