mtllib materials.mtl
v 0.3950006 -0.01499987 0.004999898
v 0.3950006 1.192093E-07 -0.0050001
v -0.2649998 -1.013279E-06 -0.00499998
v -0.2649998 -0.01500106 0.004999973
v 0.4450005 -0.01499987 0.004999898
v 0.4450005 -0.02499986 0.01999991
v 0.4550006 -0.0249998 -0.005000114
v 0.4450005 1.192093E-07 -0.0050001
v 0.3950006 -0.01499987 0.03499991
v 0.3950006 1.192093E-07 0.0449999
v 0.4450005 1.192093E-07 0.0449999
v 0.4450005 -0.01499987 0.03499991
v 0.3950006 -0.02499986 0.0199999
v 0.3950006 0.0150001 0.004999891
v 0.4450005 0.0150001 0.004999891
v 0.4450005 0.0250001 0.01999989
v 0.3950006 0.0250001 0.01999989
v 0.3950006 0.0150001 0.0349999
v 0.4450005 0.0150001 0.0349999
v 0.4550006 -0.03499985 0.01999991
v 0.4550006 -0.0249998 0.04499994
v 0.4550006 1.788139E-07 0.0549999
v 0.4550006 0.03500009 0.01999986
v 0.4550006 0.02500015 -0.005000144
v 0.4550006 1.788139E-07 -0.01500012
v 0.4950007 -0.03500003 0.01999991
v 0.4950007 -0.02499998 -0.005000129
v 0.4550006 0.02500015 0.04499988
v 0.4950007 -0.02499998 0.04499993
v 0.4950007 0 0.0549999
v 0.4950007 0.02499998 0.04499985
v 0.4950007 0.03499991 0.01999984
v 0.4950007 0.02499998 -0.005000159
v 0.4950007 0 -0.01500015
v -0.2649998 0.01499891 0.004999965
v -0.2649998 0.02499896 0.0199999
v -0.2649998 0.01499891 0.03499998
v -0.2649998 -1.013279E-06 0.04499995
v -0.2649998 -0.01500106 0.03499999
v -0.2649998 -0.02500099 0.01999991
v -0.4950007 -9.536743E-07 -0.0549999
v -0.4950007 -0.01500094 -0.04499993
v -0.4950007 0.01499897 -0.04499994
v -0.4950007 0.02499908 -0.03000006
v -0.4950007 0.01499897 -0.01499997
v -0.4950007 -9.536743E-07 -0.00499998
v -0.4950007 -0.01500094 -0.01499994
v -0.4950007 -0.02500093 -0.03000005
vn 8.549267E-07 -0.5546988 -0.8320513
vn -0.811103 -0.4866693 -0.3244456
vn 1.07732E-08 -0.5547005 -0.8320501
vn 1.80274E-08 -0.5547006 0.8320501
vn 1.495102E-07 -0.8320504 -0.5547001
vn -9.644521E-09 0.8320506 -0.5546999
vn -1.07732E-08 0.5547005 0.8320501
vn -1.350045E-07 -0.8320507 0.5546997
vn -8.986889E-09 0.5547005 -0.8320501
vn 8.301159E-09 0.8320506 0.5546998
vn -0.6395976 -0.6396055 0.4264034
vn -0.8111037 -0.3244455 0.4866682
vn -0.6395994 0.426403 0.639604
vn -0.639597 0.6396059 0.4264036
vn -0.6395985 0.6396049 -0.4264027
vn -0.8111051 0.3244445 -0.4866666
vn -0.6395974 -0.4264039 -0.6396054
vn -4.206935E-06 -0.9284762 -0.371392
vn -0.7925907 0.2264575 0.5661422
vn -0.7925912 0.5661424 0.2264552
vn -0.680409 -0.2721667 0.6804184
vn -0.7925895 -0.5661435 0.2264584
vn -0.6804094 -0.6804173 -0.2721681
vn -0.7925904 -0.2264575 -0.5661426
vn -0.6804114 0.2721665 -0.6804158
vn -0.7925916 0.5661418 -0.2264554
vn -4.146224E-06 -0.9284762 0.371392
vn -1.571193E-06 -0.37139 0.928477
vn 1.933955E-06 0.371392 0.9284762
vn 4.379626E-06 0.9284776 0.3713884
vn 3.992574E-06 0.9284776 -0.3713885
vn 1.310117E-06 0.3713907 -0.9284768
vn -2.008921E-06 -0.3713911 -0.9284766
vn 1 -1.192095E-06 8.622837E-07
vn -1.098496E-06 0.5547004 -0.8320502
vn -1.499184E-06 0.8320492 -0.5547019
vn -1.428001E-06 0.8320504 0.5547
vn -8.967688E-07 0.5547006 0.8320501
vn 1.056821E-06 -0.554699 0.8320511
vn 1.506137E-06 -0.8320521 0.5546977
vn 1.427781E-06 -0.8320507 -0.5546997
vn 0.1779916 -0.5458397 -0.8187662
vn 0.1779913 0.5458428 -0.8187643
vn 0.1197204 0.8260635 -0.5507143
vn -0.119719 0.826066 0.5507107
vn -0.1779911 0.5458433 0.8187639
vn -0.177992 -0.5458401 0.8187658
vn -0.1197184 -0.8260691 0.5507063
vn 0.1197184 -0.8260667 -0.5507099
vn -1 -5.960464E-07 -1.137956E-06
vt -0.00313998 0.1427513
vt -0.004676186 0.1436947
vt -0.03921545 0.08745377
vt -0.03767925 0.08651033
vt -0.01584985 0.05882423
vt -0.01480576 0.05735458
vt -0.0146167 0.06004052
vt -0.003139927 0.1427512
vt -0.0005233127 0.1470119
vt -0.002059519 0.1479553
vt -0.004676132 0.1436947
vt 0.0386742 0.131244
vt 0.04043563 0.1316279
vt 0.03937103 0.1365132
vt 0.0376096 0.1361294
vt 0.0102379 0.1325122
vt 0.01180107 0.1316142
vt 0.01429183 0.1359496
vt 0.01272866 0.1368477
vt -0.04119822 0.1192074
vt -0.04129725 0.1242064
vt -0.04309968 0.1241707
vt -0.04300064 0.1191717
vt 0.002312736 0.1422432
vt 0.003848942 0.1431867
vt 0.001232328 0.1474473
vt -0.000303878 0.1465039
vt 0.04022768 0.1192266
vt 0.0420301 0.1191909
vt 0.04212914 0.1241899
vt 0.04032672 0.1242256
vt -0.03666113 0.1359227
vt -0.03842256 0.1363065
vt -0.03948717 0.1314212
vt -0.03772573 0.1310374
vt -0.01188696 0.1373312
vt -0.01345013 0.1364332
vt -0.01095937 0.1320978
vt -0.009396205 0.1329958
vt 0.04031408 0.04560215
vt 0.04211435 0.04550728
vt 0.03982861 0.04693044
vt 0.006208928 0.07149362
vt 0.00707247 0.07307611
vt 0.00457528 0.07206912
vt -0.01794054 0.1432753
vt -0.01654125 0.1444119
vt -0.01919131 0.1439353
vt -0.02712495 0.1481819
vt -0.02560146 0.1491458
vt -0.02582821 0.1505417
vt -0.04313578 0.1464634
vt -0.04133327 0.1464942
vt -0.04371258 0.1477547
vt -0.0406487 0.1318032
vt -0.03888348 0.1314372
vt -0.04057312 0.1335336
vt -0.01756774 0.105789
vt -0.01615036 0.104675
vt -0.01719999 0.1071546
vt 0.01946215 0.1317922
vt 0.0218537 0.1305551
vt 0.02369155 0.1341079
vt 0.0213 0.135345
vt -0.01933029 0.1264113
vt -0.02023836 0.1278863
vt -0.02195536 0.1258121
vt -0.03424003 0.1424186
vt -0.03655619 0.1410455
vt -0.03524064 0.1399188
vt 0.01585158 0.09957694
vt 0.01523563 0.10085
vt 0.0132049 0.09908191
vt 0.02391052 -0.009407314
vt 0.02548827 -0.008692672
vt 0.02364747 -0.006727608
vt 0.0007448818 0.05807497
vt 0.001979255 0.05876515
vt 9.414165E-05 0.06068774
vt -0.02624161 0.09933108
vt -0.02476939 0.1002435
vt -0.02684859 0.1019544
vt -0.03661938 0.1384262
vt -0.03586531 0.1396226
vt -0.03844028 0.1404097
vt -0.04064508 0.1403402
vt -0.04031198 0.14204
vt -0.04298045 0.1416804
vt 0.03904685 0.1216367
vt 0.04171123 0.1212479
vt 0.04228872 0.125206
vt 0.03962434 0.1255948
vt 0.03155008 0.1432087
vt 0.03410581 0.1440562
vt 0.0328468 0.1478529
vt 0.03029107 0.1470054
vt 0.006617226 0.1506876
vt 0.008929273 0.1520676
vt 0.006879163 0.1555023
vt 0.004567114 0.1541223
vt -0.02193628 0.1305123
vt -0.01954473 0.1317494
vt -0.02138258 0.1353022
vt -0.02377412 0.1340651
vt -0.04161929 0.1212613
vt -0.03895492 0.12165
vt -0.03953242 0.1256081
vt -0.04219679 0.1252194
vt -0.03419396 0.1440854
vt -0.03163822 0.1432379
vt -0.03037922 0.1470346
vt -0.03293495 0.1478821
vt -0.008849585 0.1520201
vt -0.006537539 0.1506401
vt -0.004487428 0.1540748
vt -0.006799476 0.1554548
vt 0.03824547 0.0759099
vt 0.03969857 0.07364307
vt 0.04231415 0.0730037
vt 0.04458097 0.0744568
vt 0.04522032 0.07707237
vt 0.04376722 0.07933919
vt 0.04115166 0.07997856
vt 0.03888483 0.07852547
vt -0.03772573 0.1310374
vt -0.03948716 0.1314213
vt -0.05353984 0.06693462
vt -0.05177842 0.06655078
vt -0.04119823 0.1192075
vt -0.04300065 0.1191718
vt -0.04169342 0.05318476
vt -0.039891 0.05322046
vt -0.009396228 0.1329959
vt -0.0109594 0.1320978
vt 0.02191861 0.07486986
vt 0.02348178 0.07576791
vt 0.003848919 0.1431867
vt 0.002312713 0.1422433
vt 0.03685198 0.08600231
vt 0.03838819 0.08694573
vt 0.0404356 0.131628
vt 0.03867417 0.1312442
vt 0.05272691 0.06675752
vt 0.05448835 0.06714137
vt 0.0420301 0.1191909
vt 0.04022768 0.1192267
vt 0.03892024 0.05323957
vt 0.04072266 0.05320386
vt 0.01180111 0.1316143
vt 0.01023794 0.1325123
vt -0.02264006 0.07528432
vt -0.0210769 0.07438628
vt -0.03386138 0.09171458
vt -0.03538921 0.09267153
vt -0.05014666 0.07433517
vt -0.04861883 0.07337823
vt -0.0526319 0.05696318
vt -0.05438201 0.05739569
vt -0.0572972 0.03403963
vt -0.05554708 0.03360711
vt -0.03976921 0.04320204
vt -0.04157156 0.0431632
vt -0.03691323 0.02009148
vt -0.03511088 0.02013032
vt 0.02026971 0.08235318
vt 0.01869936 0.08146773
vt 0.03370175 0.06333123
vt 0.03527211 0.06421669
vt 0.03417333 0.09278374
vt 0.0326455 0.0918268
vt 0.04740296 0.07349046
vt 0.04893078 0.07444739
vt 0.05514678 0.05834759
vt 0.05339666 0.05791507
vt 0.05631191 0.03455902
vt 0.05806203 0.03499154
vt 0.04061132 0.04368193
vt 0.03880896 0.04372078
vt 0.03415045 0.0206491
vt 0.03595282 0.02061025
vt -0.0180984 0.08055705
vt -0.01966873 0.08144249
vt -0.03467112 0.063306
vt -0.03310079 0.06242055
vt -0.03557186 0.07904823
vt -0.03562999 0.08085006
vt -0.03731557 0.08148942
vt -0.03911741 0.08143131
vt -0.03975677 0.0797457
vt -0.03969865 0.07794388
vt -0.03801306 0.07730451
vt -0.03621121 0.07736264
o group194377024
g mesh194377024
usemtl mat21
f 4/4/1 3/3/1 2/2/1 1/1/1
f 7/7/2 6/6/2 5/5/2
f 2/11/3 8/10/3 5/9/3 1/8/3
f 12/15/4 11/14/4 10/13/4 9/12/4
f 5/19/5 6/18/5 13/17/5 1/16/5
f 17/23/6 16/22/6 15/21/6 14/20/6
f 11/27/7 19/26/7 18/25/7 10/24/7
f 6/31/8 12/30/8 9/29/8 13/28/8
f 2/35/9 14/34/9 15/33/9 8/32/9
f 17/39/10 18/38/10 19/37/10 16/36/10
f 20/42/11 12/41/11 6/40/11
f 21/45/12 11/44/12 12/43/12
f 22/48/13 19/47/13 11/46/13
f 23/51/14 16/50/14 19/49/14
f 23/54/15 15/53/15 16/52/15
f 24/57/16 8/56/16 15/55/16
f 25/60/17 5/59/17 8/58/17
f 27/64/18 26/63/18 20/62/18 7/61/18
f 22/67/19 28/66/19 19/65/19
f 19/70/20 28/69/20 23/68/20
f 21/73/21 22/72/21 11/71/21
f 20/76/22 21/75/22 12/74/22
f 7/79/23 20/78/23 6/77/23
f 25/82/24 7/81/24 5/80/24
f 24/85/25 25/84/25 8/83/25
f 23/88/26 24/87/26 15/86/26
f 26/92/27 29/91/27 21/90/27 20/89/27
f 29/96/28 30/95/28 22/94/28 21/93/28
f 30/100/29 31/99/29 28/98/29 22/97/29
f 31/104/30 32/103/30 23/102/30 28/101/30
f 32/108/31 33/107/31 24/106/31 23/105/31
f 33/112/32 34/111/32 25/110/32 24/109/32
f 34/116/33 27/115/33 7/114/33 25/113/33
f 34/124/34 33/123/34 32/122/34 31/121/34 30/120/34 29/119/34 26/118/34 27/117/34
f 3/128/35 35/127/35 14/126/35 2/125/35
f 35/132/36 36/131/36 17/130/36 14/129/36
f 36/136/37 37/135/37 18/134/37 17/133/37
f 37/140/38 38/139/38 10/138/38 18/137/38
f 38/144/39 39/143/39 9/142/39 10/141/39
f 39/148/40 40/147/40 13/146/40 9/145/40
f 40/152/41 4/151/41 1/150/41 13/149/41
f 42/156/42 41/155/42 3/154/42 4/153/42
f 41/160/43 43/159/43 35/158/43 3/157/43
f 43/164/44 44/163/44 36/162/44 35/161/44
f 44/168/45 45/167/45 37/166/45 36/165/45
f 45/172/46 46/171/46 38/170/46 37/169/46
f 46/176/47 47/175/47 39/174/47 38/173/47
f 47/180/48 48/179/48 40/178/48 39/177/48
f 48/184/49 42/183/49 4/182/49 40/181/49
f 48/192/50 47/191/50 46/190/50 45/189/50 44/188/50 43/187/50 41/186/50 42/185/50
