mtllib materials.mtl
v 0.0374999 -0.01499999 0.06499997
v 0.0374999 -0.01499999 0.105
v 0.0374999 0 0.06499997
v -0.05250001 -0.01499999 0.06499997
v -0.05250001 0 0.08499996
v -0.05250001 -0.01499999 0.105
v 0.0374999 0.01499999 0.06499997
v 0.0374999 0.01499999 0.105
v -0.05250001 0.01499999 0.105
v -0.05250001 0.01499999 0.06499997
v -0.01250005 0 -0.145
v -0.1075 0 -0.1
v -0.05250001 -0.01499999 0.145
v 0.0374999 -0.01499999 0.145
v -0.05250001 0 0.07250006
v 0.2724999 0 0.02499987
v -0.05250001 0 0.145
v -0.05250001 0.01499999 0.145
v 0.0374999 0.01499999 0.145
v 0.0374999 0 0.145
v 0.1 0 -0.125
v -0.0625 0 0.04000013
v -0.2725 0 0.03499996
vn 1 0 0
vn -1 0 0
vn 0 -1 0
vn 0 1 0
vn -0.0370506 -0.9962476 -0.07821781
vn -2.255139E-13 -1 1.959733E-06
vn 3.440589E-09 0.9974587 -0.07124698
vn 1 0 0
vn -1 0 0
vn -1 1.345087E-06 7.401537E-14
vn -1 -2.895817E-07 0
vn 0.1677998 9.897114E-08 0.9858211
vn 0.1677998 9.897114E-08 0.9858211
vn -1 5.949589E-07 9.313211E-07
vn -1 -2.592297E-08 0
vn 0 1 -9.663378E-09
vn 1 2.640848E-09 0
vn 1 5.847166E-07 9.313204E-07
vn 0 0 1
vn 0.05320495 0.9967074 -0.06118569
vn 0.05320495 -0.9967074 -0.06118568
vn -0.03705055 0.9962476 -0.07821772
vn 2.123329E-07 -0.9974587 -0.07124703
vn -0.01233573 -0.8552418 0.5180823
vn -0.01233574 0.8552415 0.5180828
vn -0.9456105 0.1454806 0.2909575
vn -0.9456106 -0.1454793 0.2909575
vn 0.01322175 0.9971429 -0.07437246
vn -0.0581942 0.9957683 -0.07112627
vn 0.01322175 -0.9971429 -0.07437246
vn -0.05819428 -0.9957683 -0.07112637
vt 0.06323873 0.08509328
vt 0.06649367 0.08276833
vt 0.06411058 0.08631388
vt -0.06323873 0.08509328
vt -0.06573805 0.0851514
vt -0.06649366 0.08276833
vt 0.04056217 0.1076277
vt 0.03753515 0.09915198
vt 0.04130211 0.09780663
vt 0.04432914 0.1062823
vt -0.04056217 0.1076277
vt -0.04432914 0.1062823
vt -0.04130211 0.09780663
vt -0.03753515 0.09915198
vt 0.01420289 0.1085564
vt 0.01481521 0.0980624
vt 0.03223887 0.09698263
vt 0.04432924 0.1062823
vt 0.04130222 0.0978066
vt 0.04506919 0.09646125
vt 0.04809621 0.1049369
vt -0.02282996 0.1081957
vt -0.04440478 0.1065293
vt -0.04165704 0.097959
vt 0.06411058 0.08631388
vt 0.06823738 0.08520953
vt 0.06498244 0.08753448
vt -0.06498244 0.08753448
vt -0.06823738 0.08520953
vt -0.06573805 0.0851514
vt -0.0632387 0.08509347
vt -0.06472086 0.08587813
vt -0.06573802 0.0851516
vt -0.06573805 0.08515136
vt -0.06472089 0.0858779
vt -0.06498244 0.08753444
vt 0.04822666 0.1483479
vt 0.03794398 0.1698541
vt 0.04687339 0.1477008
vt 0.04957993 0.1489949
vt 0.03794398 0.1698541
vt 0.04822666 0.1483479
vt -0.06649362 0.08276845
vt -0.06573801 0.08515152
vt -0.07062042 0.0816641
vt -0.06974857 0.08044349
vt -0.06573804 0.0851514
vt -0.06823737 0.08520952
vt -0.07149231 0.08288456
vt -0.07062045 0.08166397
vt -0.04130211 0.09780663
vt -0.04432914 0.1062823
vt -0.04809611 0.104937
vt -0.04506908 0.09646128
vt 0.06823738 0.08520953
vt 0.06411058 0.08631388
vt 0.07062045 0.08166397
vt 0.07149231 0.08288457
vt 0.06411061 0.08631377
vt 0.06649368 0.08276822
vt 0.06974862 0.08044325
vt 0.07062047 0.08166385
vt 0.04337973 0.1502638
vt 0.04740465 0.1422139
vt 0.04874628 0.1428848
vt 0.05008792 0.1435556
vt 0.04606301 0.1516054
vt 0.04472137 0.1509346
vt -0.04292246 0.1006278
vt -0.02684795 0.1126246
vt -0.04653797 0.1242377
vt 0.04289492 0.1377369
vt 0.02278186 0.1268729
vt 0.03839357 0.1142797
vt -0.04270712 0.1018595
vt -0.02525324 0.1015247
vt -0.02379313 0.1119347
vt 0.03349959 0.1007207
vt 0.03678321 0.1091003
vt 0.01535675 0.1121263
vt 0.06006136 0.1011595
vt 0.05865313 0.08020076
vt 0.06302033 0.1020223
vt -0.006176495 0.119451
vt 0.007528978 0.1019179
vt -0.003145339 0.1200096
vt -0.04249908 0.1182031
vt -0.0391077 0.1184501
vt -0.04189425 0.1197673
vt -0.04517943 0.08481087
vt -0.04272996 0.08668169
vt -0.046098 0.08621398
vt -0.04434637 0.1050244
vt -0.02277244 0.1067024
vt -0.02811224 0.1168043
vt -0.04268263 0.1041569
vt -0.03316715 0.08403956
vt -0.02522869 0.1038254
vt 0.02141747 0.1233058
vt 0.01546339 0.1135533
vt 0.03689233 0.1105449
vt 0.01472775 0.09558596
vt 0.02102781 0.07521909
vt 0.03215066 0.09449427
o group1793016102
g mesh1793016102
usemtl mat21
f 3/3/1 2/2/1 1/1/1
f 6/6/2 5/5/2 4/4/2
f 2/10/3 6/9/3 4/8/3 1/7/3
f 10/14/4 9/13/4 8/12/4 7/11/4
f 4/17/5 12/16/5 11/15/5
f 14/21/6 13/20/6 6/19/6 2/18/6
f 10/24/7 7/23/7 11/22/7
f 7/27/8 8/26/8 3/25/8
f 5/30/9 9/29/9 10/28/9
f 5/33/10 15/32/10 4/31/10
f 10/36/11 15/35/11 5/34/11
f 1/39/12 16/38/12 3/37/12
f 3/42/13 16/41/13 7/40/13
f 13/46/14 17/45/14 5/44/14 6/43/14
f 17/50/15 18/49/15 9/48/15 5/47/15
f 18/54/16 19/53/16 8/52/16 9/51/16
f 19/58/17 20/57/17 3/56/17 8/55/17
f 20/62/18 14/61/18 2/60/18 3/59/18
f 20/68/19 19/67/19 18/66/19 17/65/19 13/64/19 14/63/19
f 16/71/20 21/70/20 7/69/20
f 1/74/21 21/73/21 16/72/21
f 11/77/22 12/76/22 10/75/22
f 11/80/23 1/79/23 4/78/23
f 10/83/24 23/82/24 22/81/24
f 22/86/25 23/85/25 4/84/25
f 10/89/26 22/88/26 15/87/26
f 15/92/27 22/91/27 4/90/27
f 21/95/28 11/94/28 7/93/28
f 12/98/29 23/97/29 10/96/29
f 1/101/30 11/100/30 21/99/30
f 4/104/31 23/103/31 12/102/31
